<?xml version="1.0" encoding="UTF-8"?>
<!-- Uploaded to: SVG Find, www.svgrepo.com, Generator: SVG Find Mixer Tools -->
<svg width="800px" height="800px" version="1.1" viewBox="144 144 512 512" xmlns="http://www.w3.org/2000/svg">
 <defs>
  <clipPath id="c">
   <path d="m148.09 218h503.81v433.9h-503.81z"/>
  </clipPath>
  <clipPath id="b">
   <path d="m226 148.09h159v157.91h-159z"/>
  </clipPath>
  <clipPath id="a">
   <path d="m381 148.09h249v154.91h-249z"/>
  </clipPath>
 </defs>
 <g clip-path="url(#c)">
  <path d="m281.92 610.57v25.586c0 4.1758 1.6602 8.1797 4.6133 11.133 2.9492 2.9531 6.957 4.6094 11.133 4.6094h204.67c4.1758 0 8.1797-1.6562 11.133-4.6094s4.6094-6.957 4.6094-11.133v-25.586c37.195-5.6641 71.137-24.457 95.684-52.973 24.543-28.516 38.074-64.875 38.141-102.5v-55.102c0-4.1758-1.6562-8.1797-4.6094-11.133-2.9531-2.9531-6.957-4.6133-11.133-4.6133h-60.074c8.3711-12.086 12.852-26.441 12.84-41.148v-22.102c17.609-14.5 62.977-56.27 62.977-102.06h-31.488c0 19.949-15.742 42.082-31.488 58.859v-43.113c0-4.1758-1.6602-8.1797-4.6094-11.133-2.9531-2.9492-6.957-4.6094-11.133-4.6094-4.1758 0-8.1797 1.6562-11.133 4.6094l-50.797 50.797c-13.035-1.5-26.051 2.9922-35.383 12.219-9.3359 9.2227-13.984 22.184-12.637 35.234-29.828 26.34-53.41 47.809-65.336 58.758-5.6797-23.449-17.387-45.012-33.961-62.543-2.6836-2.6914-6.2461-4.3203-10.035-4.5898-3.7891-0.26953-7.5469 0.83984-10.582 3.125-25.191 18.895-33.59 49.262-36.375 67.699h-18.508l-61.625-61.621v-48.586h-31.488v39.359h-47.23v31.488h45.484c-0.69922 13.207 0.39453 26.449 3.2578 39.359h-33c-4.1719 0-8.1797 1.6602-11.133 4.6133-2.9492 2.9531-4.6094 6.957-4.6094 11.133v55.105-0.003907c0.066406 37.625 13.598 73.984 38.145 102.5 24.543 28.516 58.484 47.309 95.68 52.973zm204.67 9.8398h-173.18v-7.8711h173.18zm133.82-165.31c-0.035156 33.395-13.32 65.41-36.93 89.02-23.613 23.613-55.629 36.895-89.023 36.934h-188.93c-13.133-0.003907-26.184-2.0742-38.676-6.1328 17.32-19.363 57.82-53.168 134.71-60.852 106.52-10.652 175.73-77.934 194.44-98.32h24.41zm-114.14-149.57c4.7773 0 9.082 2.875 10.91 7.2891 1.8281 4.4102 0.81641 9.4922-2.5586 12.867-3.3789 3.3789-8.457 4.3867-12.867 2.5586-4.4141-1.8281-7.293-6.1328-7.293-10.906 0-6.5234 5.2891-11.809 11.809-11.809zm-27.883 44.871c11.059 9.3711 26.074 12.582 40 8.5469 13.922-4.0312 24.898-14.77 29.234-28.602 4.3359-13.832 1.4531-28.918-7.6719-40.176l17.488-17.477v70.418c-0.011719 10.906-4.3516 21.363-12.066 29.074-7.7148 7.7109-18.172 12.051-29.078 12.062h-75.715c10.477-9.4453 23.34-21.02 37.809-33.848zm-126.79 2.3047c6.793 9.5508 11.836 20.23 14.902 31.543h-27.625c1.9844-11.285 6.3164-22.027 12.723-31.527zm-126.05 13.18 18.355 18.363h-14.461c-1.9414-5.9688-3.2461-12.121-3.8945-18.363zm-45.965 49.852h370.66c-42.746 37.043-95.641 60.379-151.82 66.992-95.426 9.5391-143.01 55.594-160.95 78.191-36.047-23.125-57.859-62.996-57.898-105.82z"/>
 </g>
 <g clip-path="url(#b)">
  <path d="m305.54 305.54c20.879 0 40.898-8.293 55.664-23.059 14.762-14.762 23.055-34.785 23.055-55.664 0-20.875-8.293-40.898-23.055-55.664-14.766-14.762-34.785-23.055-55.664-23.055s-40.902 8.293-55.664 23.055c-14.762 14.766-23.059 34.789-23.059 55.664 0.023438 20.871 8.3242 40.883 23.082 55.641 14.758 14.758 34.77 23.059 55.641 23.082zm-44.477-62.977h28.73v28.734-0.003907c-13.406-4.7734-23.953-15.324-28.73-28.73zm60.219 28.73v-28.73h28.734c-4.7773 13.406-15.328 23.957-28.734 28.73zm28.734-60.219h-28.734v-28.734c13.406 4.7773 23.957 15.328 28.734 28.734zm-60.223-28.734v28.734h-28.73c4.7773-13.406 15.324-23.957 28.73-28.734z"/>
 </g>
 <g clip-path="url(#a)">
  <path d="m387.48 291.47c4.9414 6.168 12.188 10.051 20.059 10.742 1.168 0.12109 2.3398 0.18359 3.5117 0.18359 8.043-0.027343 15.836-2.8086 22.082-7.8828 16.586-11.438 39.445-25.152 61.551-38.414 22.828-13.672 46.359-27.812 63.836-39.91h-0.003906c3.5898-2.4844 5.9883-6.3477 6.6172-10.668 0.63281-4.3203-0.55859-8.707-3.2852-12.113l-6.2969-7.8711v-0.003906c18.719-7.3438 39.891-4.625 56.141 7.2188l17.469-26.199v0.003907c-13.57-9.543-29.5-15.184-46.055-16.309-16.551-1.125-33.098 2.3086-47.836 9.9297l-4.8945-6.1797c-2.668-3.3281-6.5703-5.4336-10.816-5.832-4.2461-0.39844-8.4727 0.94141-11.715 3.7148l-109.11 93.52c-8.1562 4.9023-13.938 12.941-15.988 22.23-1.9805 8.2578-0.25 16.969 4.7383 23.84zm128.48-105.08 10.57 13.219c-14.461 9.3047-31.488 19.508-48.02 29.449-14.492 8.6602-29.293 17.57-42.645 25.977z"/>
 </g>
 <path d="m218.94 439.36h31.488v31.488h-31.488z"/>
 <path d="m274.05 439.36h31.488v31.488h-31.488z"/>
</svg>